<svg xmlns="http://www.w3.org/2000/svg" viewBox="0 0 32 32">
  <!-- Dark rounded-square background -->
  <rect width="32" height="32" rx="7" fill="#1d1d1f"/>
  <!-- Heroicons user-circle (solid), scaled to 20×20 and centred -->
  <g transform="translate(6,6) scale(0.833)">
    <path fill="#f5f5f7" fill-rule="evenodd"
      d="M18.685 19.097A9.723 9.723 0 0 0 21.75 12c0-5.385-4.365-9.75-9.75-9.75S2.25 6.615 2.25 12a9.723 9.723 0 0 0 3.065 7.097A9.716 9.716 0 0 0 12 21.75a9.716 9.716 0 0 0 6.685-2.653Zm-12.54-1.285A7.486 7.486 0 0 1 12 15a7.486 7.486 0 0 1 5.855 2.812A8.224 8.224 0 0 1 12 20.25a8.224 8.224 0 0 1-5.855-2.438ZM15.75 9a3.75 3.75 0 1 1-7.5 0 3.75 3.75 0 0 1 7.5 0Z"
      clip-rule="evenodd"/>
  </g>
</svg>
